<svg viewBox="0 0 228.87 228.87" fill="none" xmlns="http://www.w3.org/2000/svg">
  <path d="M155.4 83.11a16.87 16.87 0 115-11.94 16.87 16.87 0 01-5 11.94m51.27-16.85L148.37 8a7.2 7.2 0 00-10.18 0l-63 63 68.47 68.47 63-63a7.2 7.2 0 000-10.18" fill="#E21836"/>
  <path d="M84.09 131.79a16.86 16.86 0 11-4.95 11.94 16.82 16.82 0 014.95-11.94M58.42 155a16.93 16.93 0 114.93-12 16.92 16.92 0 01-4.93 12M7.93 138.2a7.2 7.2 0 000 10.18l58.3 58.31a7.2 7.2 0 0010.18 0l63-63L70.93 75.2z" fill="#0B69A3"/>
</svg>
